<?xml version="1.0" encoding="utf-8"?>
<!-- Generator: Adobe Illustrator 19.0.0, SVG Export Plug-In . SVG Version: 6.00 Build 0)  -->
<svg version="1.1" xmlns="http://www.w3.org/2000/svg" xmlns:xlink="http://www.w3.org/1999/xlink" x="0px" y="0px"
	 viewBox="0 0 31.8 14.2" style="enable-background:new 0 0 31.8 14.2;" xml:space="preserve">
<style type="text/css">
	.st0{display:none;}
	.st1{display:inline;}
	.st2{clip-path:url(#XMLID_81_);fill:none;stroke:#000000;stroke-width:0.401;}
	.st3{display:inline;fill:#FFFFFF;}
	.st4{fill:none;stroke:#000000;stroke-width:0.401;}
	.st5{fill:#FFFFFF;}
	.st6{clip-path:url(#XMLID_82_);fill:none;stroke:#000000;stroke-width:0.401;}
	.st7{clip-path:url(#XMLID_83_);fill:none;stroke:#000000;stroke-width:0.401;}
	.st8{clip-path:url(#XMLID_83_);}
	.st9{clip-path:url(#XMLID_83_);fill:none;stroke:#000000;stroke-width:0.306;}
</style>
<g id="Calque_1" class="st0">
	<g id="XMLID_67_" class="st1">
		<defs>
			<rect id="XMLID_68_" x="-8.8" y="-7.5" width="29.5" height="18.9"/>
		</defs>
		<clipPath id="XMLID_81_">
			<use xlink:href="#XMLID_68_"  style="overflow:visible;"/>
		</clipPath>
		<circle id="XMLID_69_" class="st2" cx="5.7" cy="4.9" r="4.3"/>
	</g>
	
		<rect id="XMLID_66_" x="4.1" y="-0.3" transform="matrix(-0.2418 -0.9703 0.9703 -0.2418 2.2638 12.3055)" class="st3" width="3.7" height="11.2"/>
	<g id="XMLID_64_" class="st1">
		<path id="XMLID_70_" d="M3.7,6.7L3,6.8L2.4,5.5L2.4,7L1.7,7.2l-1-1.7l0.6-0.1L2,6.7L1.9,5.2L2.7,5l0.6,1.4L3.3,4.8l0.6-0.1
			L3.7,6.7z"/>
		<path id="XMLID_72_" d="M6.4,5c0.1,0.6-0.2,1.1-0.9,1.2C4.9,6.4,4.3,6.1,4.2,5.5C4,4.9,4.4,4.5,5.1,4.3C5.7,4.1,6.2,4.4,6.4,5z
			 M5.8,5.1C5.7,4.7,5.5,4.6,5.1,4.7C4.8,4.7,4.7,5,4.8,5.4C4.9,5.8,5.1,6,5.4,5.9S5.9,5.5,5.8,5.1z"/>
		<path id="XMLID_75_" d="M8.9,4.4C9,5,8.7,5.5,8,5.6C7.3,5.8,6.8,5.5,6.7,4.9C6.5,4.3,6.8,3.9,7.5,3.7C8.2,3.5,8.7,3.8,8.9,4.4z
			 M8.3,4.5C8.2,4.1,7.9,4,7.6,4C7.3,4.1,7.1,4.4,7.2,4.8c0.1,0.4,0.4,0.6,0.7,0.5C8.2,5.2,8.4,4.9,8.3,4.5z"/>
		<path id="XMLID_78_" d="M10.9,3.5c0.1,0.4-0.1,0.6-0.4,0.7c-0.1,0-0.2,0.1-0.3,0.1L9.8,4.4L10,5.1L9.4,5.2L9,3.4l0.8-0.2
			c0.1,0,0.2-0.1,0.3-0.1C10.4,3,10.8,3.2,10.9,3.5z M10.3,3.7c0-0.1-0.1-0.2-0.3-0.2c0,0-0.1,0-0.2,0L9.6,3.6l0.1,0.5L10,4
			c0.1,0,0.1,0,0.1,0C10.2,3.9,10.3,3.8,10.3,3.7z"/>
	</g>
</g>
<g id="Calque_2">
	<path id="XMLID_43_" d="M2.1,11.1h5.7v-0.4H2.1V11.1z M2.1,9.5h5.7V9.1H2.1V9.5z M2.1,7.9h5.7V7.5H2.1V7.9z M2.1,6.3h5.7V5.9H2.1
		V6.3z M2.1,4.6h5.7V4.2H2.1V4.6z M2.1,3h5.7V2.6H2.1V3z M0.9,1.4H9v11.3H0.9V1.4z M0.5,13.1h8.9V1H0.5V13.1z"/>
	<path id="XMLID_33_" d="M10.7,11.1h5.7v-0.4h-5.7V11.1z M10.7,9.5h5.7V9.1h-5.7V9.5z M10.7,7.9h5.7V7.5h-5.7V7.9z M10.7,6.3h5.7
		V5.9h-5.7V6.3z M10.7,4.6h2.4V4.2h-2.4V4.6z M10.7,3h2.4V2.6h-2.4V3z M14.8,1.6l2.7,2.7h-2.7V1.6z M9.5,1.4h4.9v3.2h3.2v8.1H9.5
		V1.4z M9.1,1v12.1H18V4.2L14.8,1H9.1z"/>
	<rect id="XMLID_32_" x="20" y="4.7" width="10.7" height="4.6"/>
	<rect id="XMLID_31_" x="20" y="4.7" class="st4" width="10.7" height="4.6"/>
	<rect id="XMLID_30_" x="22.1" y="1.1" class="st4" width="6.5" height="4.9"/>
	<rect id="XMLID_29_" x="22.1" y="8" class="st5" width="6.5" height="4.9"/>
	<g id="XMLID_26_">
		<defs>
			<rect id="XMLID_27_" x="0.5" y="0.9" width="30.3" height="12.2"/>
		</defs>
		<clipPath id="XMLID_82_">
			<use xlink:href="#XMLID_27_"  style="overflow:visible;"/>
		</clipPath>
		<rect id="XMLID_28_" x="22.1" y="8" class="st6" width="6.5" height="4.9"/>
	</g>
	<line id="XMLID_25_" class="st4" x1="23.4" y1="11.9" x2="27.4" y2="11.9"/>
	<line id="XMLID_24_" class="st4" x1="23.4" y1="9.4" x2="27.4" y2="9.4"/>
	<line id="XMLID_23_" class="st4" x1="23.4" y1="10.7" x2="27.4" y2="10.7"/>
	<line id="XMLID_22_" class="st4" x1="23.4" y1="8.1" x2="27.4" y2="8.1"/>
</g>
<g id="Calque_3" class="st0">
	<g id="XMLID_2_" class="st1">
		<defs>
			<rect id="XMLID_3_" x="0.5" y="0.6" width="8.8" height="9.1"/>
		</defs>
		<clipPath id="XMLID_83_">
			<use xlink:href="#XMLID_3_"  style="overflow:visible;"/>
		</clipPath>
		<line id="XMLID_21_" class="st7" x1="2.9" y1="9.3" x2="9.3" y2="9.3"/>
		<path id="XMLID_20_" class="st8" d="M1,9.5c0.2,0,0.3-0.1,0.3-0.3C1.2,9.1,1.1,9,1,9S0.7,9.1,0.7,9.3C0.7,9.4,0.8,9.5,1,9.5"/>
		<circle id="XMLID_19_" class="st9" cx="1" cy="9.3" r="0.3"/>
		<line id="XMLID_18_" class="st7" x1="2.9" y1="7.6" x2="9.3" y2="7.6"/>
		<path id="XMLID_17_" class="st8" d="M1,7.9c0.2,0,0.3-0.1,0.3-0.3c0-0.2-0.1-0.3-0.3-0.3S0.7,7.5,0.7,7.6C0.7,7.8,0.8,7.9,1,7.9"
			/>
		<circle id="XMLID_16_" class="st9" cx="1" cy="7.6" r="0.3"/>
		<line id="XMLID_15_" class="st7" x1="2.9" y1="6" x2="9.3" y2="6"/>
		<path id="XMLID_14_" class="st8" d="M1,6.2c0.2,0,0.3-0.1,0.3-0.3c0-0.2-0.1-0.3-0.3-0.3S0.7,5.8,0.7,6C0.7,6.1,0.8,6.2,1,6.2"/>
		<circle id="XMLID_13_" class="st9" cx="1" cy="6" r="0.3"/>
		<line id="XMLID_12_" class="st7" x1="2.9" y1="4.3" x2="9.3" y2="4.3"/>
		<path id="XMLID_11_" class="st8" d="M1,4.6c0.2,0,0.3-0.1,0.3-0.3C1.2,4.2,1.1,4,1,4S0.7,4.2,0.7,4.3C0.7,4.5,0.8,4.6,1,4.6"/>
		<circle id="XMLID_10_" class="st9" cx="1" cy="4.3" r="0.3"/>
		<line id="XMLID_9_" class="st7" x1="2.9" y1="2.7" x2="9.3" y2="2.7"/>
		<path id="XMLID_8_" class="st8" d="M1,2.9c0.2,0,0.3-0.1,0.3-0.3c0-0.2-0.1-0.3-0.3-0.3S0.7,2.5,0.7,2.7C0.7,2.8,0.8,2.9,1,2.9"/>
		<circle id="XMLID_7_" class="st9" cx="1" cy="2.7" r="0.3"/>
		<line id="XMLID_6_" class="st7" x1="2.9" y1="1" x2="9.3" y2="1"/>
		<path id="XMLID_5_" class="st8" d="M1,1.3c0.2,0,0.3-0.1,0.3-0.3c0-0.2-0.1-0.3-0.3-0.3S0.7,0.9,0.7,1C0.7,1.2,0.8,1.3,1,1.3"/>
		<circle id="XMLID_4_" class="st9" cx="1" cy="1" r="0.3"/>
	</g>
</g>
</svg>
